<svg xmlns="http://www.w3.org/2000/svg" xmlns:xlink="http://www.w3.org/1999/xlink" width="52" height="44" fill="none" xmlns:v="https://vecta.io/nano"><path d="M37.399 36.55v-22.1h-34v22.1a1.7 1.7 0 0 0 1.7 1.7h30.6a1.7 1.7 0 0 0 1.7-1.7z" fill="#289bc3"/><path d="M13.602 33.15h-3.4a5.1 5.1 0 0 0 0 10.2h3.4a5.1 5.1 0 0 0 0-10.2zm30.597 0h-3.4a5.1 5.1 0 1 0 0 10.2h3.4a5.1 5.1 0 1 0 0-10.2z" fill="#32283c"/><path d="M40.799 43.35a5.1 5.1 0 1 0 0-10.2 5.1 5.1 0 1 0 0 10.2z" fill="#555a6e"/><path d="M40.798 39.95a1.7 1.7 0 1 0 0-3.4 1.7 1.7 0 1 0 0 3.4z" fill="#e6e6eb"/><path d="M30.601 33.15h-3.4a5.1 5.1 0 1 0 0 10.2h3.4a5.1 5.1 0 1 0 0-10.2z" fill="#32283c"/><path d="M47.602 16.15h-25.5a1.7 1.7 0 0 0-1.7 1.7v1.7h27.2a1.7 1.7 0 0 0 0-3.4z" fill="#a5c3dc"/><path d="M30.602 16.15h-8.5a1.7 1.7 0 0 0-1.7 1.7v1.7h10.2a1.7 1.7 0 0 0 0-3.4z" fill="#d7e6f0"/><path d="M20.402 19.55h27.2v8.5h-27.2v-8.5z" fill="#463c4b"/><path d="M20.402 19.55h10.2v8.5h-10.2v-8.5z" fill="#555a6e"/><path d="M49.302 38.25h-27.2a1.7 1.7 0 0 1-1.7-1.7v-8.5h27.2a3.4 3.4 0 0 1 3.4 3.4v5.1a1.7 1.7 0 0 1-1.7 1.7z" fill="#a5c3dc"/><path d="M32.302 38.25h-10.2a1.7 1.7 0 0 1-1.7-1.7v-8.5h10.2a3.4 3.4 0 0 1 3.4 3.4v5.1a1.7 1.7 0 0 1-1.7 1.7z" fill="#d7e6f0"/><path d="M38.107 31.45h8.783a2.41 2.41 0 0 1 2.408 2.408 2.41 2.41 0 0 1-2.408 2.408h-8.783a2.41 2.41 0 0 1-2.408-2.408 2.41 2.41 0 0 1 2.408-2.408z" fill="#555a6e"/><g fill="#00d2d2"><use xlink:href="#B"/><use xlink:href="#B" x="8.777"/></g><g fill="#a5c3dc"><path d="M16.15 0h-5.1a.85.85 0 0 0 0 1.7A5.96 5.96 0 0 1 17 7.65a.85.85 0 0 0 .85.85h5.1a.85.85 0 0 0 .85-.85A7.66 7.66 0 0 0 16.15 0z"/><path d="M29.749 0h-5.1A7.66 7.66 0 0 0 17 7.65a.85.85 0 0 0 .85.85h5.1a.85.85 0 0 0 .85-.85 5.96 5.96 0 0 1 5.95-5.95.85.85 0 0 0 0-1.7z"/><path d="M33.15 0h-5.1a.85.85 0 0 0 0 1.7c1.406 0 2.55 1.144 2.55 2.55S29.456 6.8 28.05 6.8a.85.85 0 1 0 0 1.7h5.1c2.343 0 4.25-1.907 4.25-4.25S35.493 0 33.15 0zM12.749 6.8c-1.406 0-2.55-1.144-2.55-2.55s1.144-2.55 2.55-2.55a.85.85 0 1 0 0-1.7h-5.1c-2.343 0-4.25 1.907-4.25 4.25S5.305 8.5 7.649 8.5h5.1a.85.85 0 1 0 0-1.7z"/></g><path d="M39.1 8.5H1.7A1.7 1.7 0 0 0 0 10.2v2.55a1.7 1.7 0 0 0 1.7 1.7h37.4a1.7 1.7 0 0 0 1.7-1.7V10.2a1.7 1.7 0 0 0-1.7-1.7z" fill="#289bc3"/><path d="M18.699 38.25h-13.6a1.7 1.7 0 0 1-1.7-1.7v-17h17v17a1.7 1.7 0 0 1-1.7 1.7zM20.4 8.5H1.7A1.7 1.7 0 0 0 0 10.2v2.55a1.7 1.7 0 0 0 1.7 1.7h18.7a1.7 1.7 0 0 0 1.7-1.7V10.2a1.7 1.7 0 0 0-1.7-1.7z" fill="#00d2d2"/><path d="M11.898 12.75a1.7 1.7 0 0 0 1.7 1.7h-5.1a1.7 1.7 0 0 1-1.7-1.7V10.2a1.7 1.7 0 0 1 1.7-1.7h5.1a1.7 1.7 0 0 0-1.7 1.7v2.55z" fill="#d7e6f0"/><path d="M28.903 12.75a1.7 1.7 0 0 1-1.7 1.7h5.1a1.7 1.7 0 0 0 1.7-1.7V10.2a1.7 1.7 0 0 0-1.7-1.7h-5.1a1.7 1.7 0 0 1 1.7 1.7v2.55z" fill="#a5c3dc"/><g fill="#d7e6f0"><path d="M28.053 8.5h-11.05v-.85A7.66 7.66 0 0 1 24.653 0h3.4c2.343 0 4.25 1.907 4.25 4.25s-1.906 4.25-4.25 4.25zm-9.289-1.7h9.289c1.406 0 2.55-1.144 2.55-2.55s-1.144-2.55-2.55-2.55h-3.4a5.96 5.96 0 0 0-5.889 5.1z"/><path d="M18.699 8.5H7.649c-2.343 0-4.25-1.907-4.25-4.25S5.305 0 7.649 0h3.4a7.66 7.66 0 0 1 7.65 7.65v.85zM7.649 1.7c-1.406 0-2.55 1.144-2.55 2.55S6.243 6.8 7.649 6.8h9.289a5.96 5.96 0 0 0-5.889-5.1h-3.4z"/></g><path d="M27.201 43.35a5.1 5.1 0 1 0 0-10.2 5.1 5.1 0 1 0 0 10.2z" fill="#555a6e"/><path d="M27.2 39.95a1.7 1.7 0 1 0 0-3.4 1.7 1.7 0 1 0 0 3.4z" fill="#e6e6eb"/><path d="M10.202 43.35a5.1 5.1 0 0 0 0-10.2 5.1 5.1 0 0 0 0 10.2z" fill="#555a6e"/><path d="M10.197 39.95a1.7 1.7 0 1 0 0-3.4 1.7 1.7 0 1 0 0 3.4z" fill="#e6e6eb"/><defs ><path id="B" d="M38.111 35.133c.704 0 1.275-.571 1.275-1.275s-.571-1.275-1.275-1.275-1.275.571-1.275 1.275.571 1.275 1.275 1.275z"/></defs></svg>