<svg xmlns="http://www.w3.org/2000/svg" xmlns:xlink="http://www.w3.org/1999/xlink" width="44" height="44" fill="none" xmlns:v="https://vecta.io/nano"><g clip-path="url(#N)"><path d="M35.575 30.372H12.544c-.516 0-.934-.418-.934-.934V18.68c0-.516.418-.934.934-.934h23.031c.516 0 .934.418.934.934v10.758c0 .516-.418.934-.934.934z" fill="url(#A)"/><path d="M11.635 29.05l1.322 1.322h22.618c.516 0 .934-.418.934-.934V18.68c0-.516-.418-.934-.934-.934H12.544c-.516 0-.934.418-.934.934v10.316l.025.054z" fill="url(#B)"/><path d="M34.172 28.971H11.141c-.516 0-.934-.418-.934-.934V17.28c0-.516.418-.934.934-.934h23.031c.516 0 .934.418.934.934v10.758c0 .516-.418.934-.934.934z" fill="url(#C)"/><path d="M10.232 27.65l1.322 1.322h22.618c.516 0 .934-.418.934-.934V17.28c0-.516-.418-.934-.934-.934H11.141c-.516 0-.934.418-.934.934v10.316l.025.054z" fill="url(#D)"/><path d="M32.774 27.571H9.743c-.516 0-.934-.418-.934-.934V15.879c0-.516.418-.934.934-.934h23.031c.516 0 .934.418.934.934v10.758c0 .516-.418.934-.934.934z" fill="url(#E)"/><path d="M8.834 26.249l1.322 1.322h22.618c.516 0 .934-.418.934-.934V15.879c0-.516-.418-.934-.934-.934H9.743c-.516 0-.934.418-.934.934v10.316l.025.054z" fill="url(#F)"/><path d="M31.457 26.254H8.426c-.516 0-.934-.418-.934-.934V14.562c0-.516.418-.934.934-.934h23.031c.516 0 .934.418.934.934V25.32c0 .516-.418.934-.934.934z" fill="url(#G)"/><path d="M30.983 16.297c-.676-.035-1.228-.589-1.263-1.264-.008-.149.01-.293.048-.429H10.113c.038.136.055.28.048.429-.035.675-.587 1.229-1.263 1.264-.231.012-.45-.035-.643-.127v7.541c.194-.092.413-.139.644-.127.676.035 1.227.589 1.262 1.265.008.149-.01.293-.048.429h19.655c-.038-.136-.055-.279-.048-.429.035-.676.587-1.229 1.262-1.265a1.33 1.33 0 0 1 .644.127V16.17a1.33 1.33 0 0 1-.643.127z" fill="url(#H)"/><path d="M19.94 23.174c1.785 0 3.233-1.448 3.233-3.233s-1.447-3.233-3.233-3.233-3.233 1.447-3.233 3.233 1.447 3.233 3.233 3.233z" fill="url(#I)"/><path d="M15.496 15.792h-4.965v1.428h4.965v-1.428z" fill="url(#J)"/><path d="M29.348 22.662h-4.965v1.428h4.965v-1.428z" fill="url(#K)"/><path d="M42.732 9.973a1.93 1.93 0 0 0-2.327.836c-1.46-2.409-3.387-4.518-5.708-6.221A21.42 21.42 0 0 0 21.94.416c-4.626 0-9.037 1.443-12.757 4.172a21.49 21.49 0 0 0-7.733 10.61 1.93 1.93 0 1 0 3.665 1.216 17.65 17.65 0 0 1 6.352-8.713A17.58 17.58 0 0 1 21.94 4.277a17.58 17.58 0 0 1 10.472 3.424c1.783 1.308 3.283 2.906 4.45 4.724a1.93 1.93 0 0 0-.948 3.723l4.02 1.471c.01.004.019.006.029.009.034.012.068.023.102.032l.055.016a1.96 1.96 0 0 0 .105.023l.054.011c.037.006.075.011.113.015.015.002.031.004.046.005a1.91 1.91 0 0 0 .159.007h0c.05 0 .1-.002.15-.006.012-.001.024-.003.036-.004a1.88 1.88 0 0 0 .114-.014c.015-.002.029-.006.044-.008.035-.006.07-.013.105-.021.016-.004.032-.009.049-.013a1.88 1.88 0 0 0 .098-.028c.024-.007.033-.012.042-.015a1.94 1.94 0 0 0 .126-.049 1.57 1.57 0 0 0 .053-.023c.04-.019.08-.039.119-.061.012-.007.025-.013.038-.02a1.92 1.92 0 0 0 .137-.088c.017-.012.034-.025.051-.038.03-.022.059-.045.087-.07l.046-.04c.032-.029.064-.06.094-.091.008-.009.018-.017.026-.026a1.9 1.9 0 0 0 .114-.134 2.14 2.14 0 0 0 .099-.141l.022-.037a2.02 2.02 0 0 0 .063-.112l.024-.048c.017-.036.034-.073.049-.11l.021-.052 1.478-4.038a1.93 1.93 0 0 0-1.15-2.477z" fill="url(#L)"/><path d="M1.268 34.027a1.93 1.93 0 0 0 2.327-.836c1.46 2.41 3.387 4.518 5.708 6.221 3.72 2.729 8.131 4.172 12.757 4.172s9.037-1.443 12.757-4.172a21.49 21.49 0 0 0 7.733-10.611 1.93 1.93 0 1 0-3.665-1.216 17.65 17.65 0 0 1-6.352 8.713c-3.052 2.24-6.674 3.424-10.472 3.424a17.58 17.58 0 0 1-10.472-3.424c-1.783-1.308-3.283-2.906-4.45-4.724a1.93 1.93 0 0 0 .948-3.723l-4.02-1.471c-.01-.003-.019-.006-.029-.009a1.92 1.92 0 0 0-.102-.032l-.055-.016a2.06 2.06 0 0 0-.105-.023l-.054-.011a2.01 2.01 0 0 0-.113-.015c-.015-.002-.031-.004-.046-.005a1.91 1.91 0 0 0-.159-.007h0c-.05 0-.1.002-.15.006-.012.001-.024.003-.035.004a1.88 1.88 0 0 0-.114.014c-.015.002-.029.006-.044.008-.035.006-.07.013-.105.021-.016.004-.032.009-.049.013a2.01 2.01 0 0 0-.098.028c-.024.007-.033.012-.043.015a2.02 2.02 0 0 0-.126.049l-.053.023c-.04.019-.08.039-.119.061-.012.007-.025.013-.037.02a1.92 1.92 0 0 0-.137.088c-.017.012-.034.025-.051.038a2 2 0 0 0-.087.07l-.046.04c-.032.029-.064.06-.094.091-.008.009-.018.017-.026.026a1.93 1.93 0 0 0-.114.134c-.039.052-.07.096-.098.141-.008.012-.015.024-.022.037-.022.037-.043.074-.063.112l-.024.048a1.97 1.97 0 0 0-.049.11l-.021.052-1.479 4.038a1.93 1.93 0 0 0 1.15 2.477z" fill="url(#M)"/></g><defs><linearGradient id="A" x1="11.61" y1="24.06" x2="36.507" y2="24.06" xlink:href="#O"><stop stop-color="#61db99"/><stop offset="1" stop-color="#009e74"/></linearGradient><linearGradient id="B" x1="25.184" y1="27.865" x2="23.878" y2="23.118" xlink:href="#O"><stop stop-color="#009e74" stop-opacity="0"/><stop offset="1" stop-color="#009e74"/></linearGradient><linearGradient id="C" x1="10.207" y1="22.659" x2="35.105" y2="22.659" xlink:href="#O"><stop stop-color="#61db99"/><stop offset="1" stop-color="#009e74"/></linearGradient><linearGradient id="D" x1="23.626" y1="27.038" x2="22.765" y2="22.914" xlink:href="#O"><stop stop-color="#009e74" stop-opacity="0"/><stop offset="1" stop-color="#009e74"/></linearGradient><linearGradient id="E" x1="8.809" y1="21.259" x2="33.707" y2="21.259" xlink:href="#O"><stop stop-color="#61db99"/><stop offset="1" stop-color="#009e74"/></linearGradient><linearGradient id="F" x1="23.131" y1="28.398" x2="19.127" y2="12.543" xlink:href="#O"><stop stop-color="#009e74" stop-opacity="0"/><stop offset="1" stop-color="#009e74"/></linearGradient><linearGradient id="G" x1="7.493" y1="19.941" x2="32.39" y2="19.941" xlink:href="#O"><stop stop-color="#a7f3ce"/><stop offset="1" stop-color="#61db99"/></linearGradient><linearGradient id="H" x1="13.436" y1="13.438" x2="29.279" y2="29.281" xlink:href="#O"><stop stop-color="#61db99"/><stop offset="1" stop-color="#009e74"/></linearGradient><linearGradient id="I" x1="18.016" y1="18.017" x2="22.703" y2="22.704" xlink:href="#O"><stop stop-color="#a7f3ce"/><stop offset="1" stop-color="#61db99"/></linearGradient><linearGradient id="J" x1="11.669" y1="15.162" x2="14.946" y2="18.438" xlink:href="#O"><stop stop-color="#a7f3ce"/><stop offset="1" stop-color="#61db99"/></linearGradient><linearGradient id="K" x1="25.52" y1="22.031" x2="28.796" y2="25.308" xlink:href="#O"><stop stop-color="#a7f3ce"/><stop offset="1" stop-color="#61db99"/></linearGradient><linearGradient id="L" x1="1.352" y1="9.077" x2="43.999" y2="9.077" xlink:href="#O"><stop stop-color="#ffb92d"/><stop offset="1" stop-color="#f59500"/></linearGradient><radialGradient id="M" cx="0" cy="0" r="1" gradientTransform="translate(22.2838 22.1382) rotate(180) scale(21.8589 21.8588)" xlink:href="#O"><stop stop-color="#be3f45"/><stop offset=".317" stop-color="#c14046"/><stop offset=".538" stop-color="#ca4148"/><stop offset=".729" stop-color="#d9444b"/><stop offset=".902" stop-color="#ef4950"/><stop offset="1" stop-color="#ff4c54"/></radialGradient><clipPath id="N"><path fill="#fff" d="M0 0h44v44H0z"/></clipPath><linearGradient id="O" gradientUnits="userSpaceOnUse"/></defs></svg>