<svg xmlns="http://www.w3.org/2000/svg" width="32" height="43" fill="none" xmlns:v="https://vecta.io/nano"><path d="M15.888 18.624L2.313 21.085l5.095 19.986c.148.541.64.935 1.206.935h14.768c.566 0 1.058-.394 1.206-.935l5.095-19.986-13.795-2.461zm-2.352-3.692a1.23 1.23 0 0 0 1.231-1.231V1.231a1.23 1.23 0 1 0-2.461 0v12.471a1.23 1.23 0 0 0 1.231 1.231zm4.923 0a1.23 1.23 0 0 0 1.231-1.231V1.231a1.23 1.23 0 1 0-2.461 0v12.471a1.23 1.23 0 0 0 1.231 1.231z" fill="url(#A)"/><path d="M31.309 15.055c-.591-.295-1.329-.049-1.649.566l-1.502 3.003-3.741-5.612a1.25 1.25 0 0 0-1.034-.541H8.616a1.25 1.25 0 0 0-1.034.541l-3.741 5.612-1.501-3.003c-.32-.615-1.058-.861-1.649-.566-.615.32-.862 1.058-.566 1.649l2.191 4.381h27.37l2.19-4.381c.296-.591.049-1.329-.566-1.649zM16 27.239c-2.036 0-3.692 1.656-3.692 3.692s1.656 3.692 3.692 3.692 3.692-1.656 3.692-3.692-1.656-3.692-3.692-3.692z" fill="url(#B)"/><defs><linearGradient id="A" x1="15.997" y1="42.006" x2="15.997" y2="0" gradientUnits="userSpaceOnUse"><stop stop-color="#fd3a84"/><stop offset="1" stop-color="#ffa68d"/></linearGradient><linearGradient id="B" x1="16" y1="34.622" x2="16" y2="12.471" gradientUnits="userSpaceOnUse"><stop stop-color="#ffc2cc"/><stop offset="1" stop-color="#fff2f4"/></linearGradient></defs></svg>