<svg xmlns="http://www.w3.org/2000/svg" width="54" height="54" fill="none" xmlns:v="https://vecta.io/nano"><path d="M43.688 30.375h-8.25c-.224 0-.438-.089-.597-.247s-.247-.373-.247-.597.089-.438.247-.597.373-.247.597-.247h8.25c.224 0 .438.089.597.247s.247.373.247.597-.089.438-.247.597-.373.247-.597.247z" fill="#e0e2e5"/><path d="M25.313 19.406L27 39.656v1.688h10.125v-1.688l1.688-20.25h-13.5z" fill="#93573d"/><path d="M16.875 19.406v-.844H13.5v2.531h-3.375v8.437H13.5h3.375v-.844h3.375v-9.281h-3.375z" fill="#fdd14b"/><path d="M13.5 32.063c-.224 0-.438-.089-.597-.247a.84.84 0 0 1-.247-.597v-9.281c0-.224.089-.438.247-.597a.84.84 0 0 1 .597-.247c.224 0 .438.089.597.247a.84.84 0 0 1 .247.597v9.281c0 .224-.089.438-.247.597a.84.84 0 0 1-.597.247zm3.496 1.687c-.222 0-.436-.088-.594-.244a.84.84 0 0 1-.25-.591l-.121-12.656c-.002-.224.085-.439.241-.599a.84.84 0 0 1 .594-.253c.224-.002.439.085.599.242a.84.84 0 0 1 .253.594l.12 12.656c.002.224-.085.439-.241.599a.84.84 0 0 1-.594.253h-.008z" fill="#e4bc43"/><path d="M9.281 27.844l1.688 11.812v1.688h10.125v-1.688-11.812H9.281z" fill="#e74444"/><path d="M48.938 30.375H47.25c-.224 0-.438-.089-.597-.247s-.247-.373-.247-.597.089-.438.247-.597.373-.247.597-.247h1.688c.224 0 .438.089.597.247s.247.373.247.597-.089.438-.247.597-.373.247-.597.247z" fill="#e0e2e5"/><path d="M38.813 19.406l-.282 3.375H25.594l-.282-3.375h13.5z" fill="#a4d4f4"/><path d="M23.674 14.344c-.153 0-.302-.042-.433-.12a.84.84 0 0 1-.31-.326.85.85 0 0 1-.099-.439c.007-.153.056-.3.141-.427l.802-1.203c.12-.179.166-.398.13-.61a.85.85 0 0 0-.325-.533l-.821-.616a2.53 2.53 0 0 1-.587-3.429l.802-1.203c.061-.092.14-.171.233-.233a.83.83 0 0 1 .304-.126c.109-.021.22-.022.329 0a.84.84 0 0 1 .304.126c.092.062.171.14.233.233a.83.83 0 0 1 .126.304c.021.109.022.221 0 .329s-.064.212-.126.304l-.802 1.203c-.12.179-.166.398-.13.61a.85.85 0 0 0 .325.533l.821.616a2.53 2.53 0 0 1 .587 3.429l-.802 1.203a.84.84 0 0 1-.703.375zm-6.75 0c-.153 0-.302-.042-.433-.12a.84.84 0 0 1-.31-.326.85.85 0 0 1-.099-.439c.007-.153.056-.3.141-.427l.802-1.203c.12-.179.166-.398.13-.61a.85.85 0 0 0-.325-.533l-.821-.616a2.53 2.53 0 0 1-.587-3.429l.802-1.203c.124-.186.317-.315.537-.359a.84.84 0 0 1 .992.662.85.85 0 0 1-.125.634l-.802 1.203c-.12.179-.166.398-.13.61a.85.85 0 0 0 .325.533l.821.616a2.53 2.53 0 0 1 .587 3.429l-.802 1.203a.84.84 0 0 1-.703.375zm13.406 0c-.153 0-.302-.042-.433-.12a.84.84 0 0 1-.31-.326.85.85 0 0 1-.099-.439c.007-.153.056-.3.141-.427l.802-1.203c.12-.179.166-.398.13-.61a.85.85 0 0 0-.325-.533l-.821-.616a2.53 2.53 0 0 1-.587-3.429l.802-1.203c.124-.186.317-.316.537-.36a.83.83 0 0 1 .329 0c.108.022.212.064.304.126s.171.14.233.233a.83.83 0 0 1 .126.304c.021.109.022.221 0 .329s-.064.212-.126.304l-.802 1.203c-.12.179-.166.398-.13.61a.85.85 0 0 0 .325.533l.821.616a2.53 2.53 0 0 1 .587 3.429l-.802 1.203c-.077.116-.182.211-.305.276a.84.84 0 0 1-.399.099zm21.139 10.969h-9.281c-.224 0-.438-.089-.597-.247a.84.84 0 0 1-.247-.597c0-.224.089-.438.247-.597a.84.84 0 0 1 .597-.247h9.281c.224 0 .438.089.597.247a.84.84 0 0 1 .247.597c0 .224-.089.438-.247.597a.84.84 0 0 1-.597.247zm-5.906 10.125H40.5c-.224 0-.438-.089-.597-.247a.84.84 0 0 1-.247-.597c0-.224.089-.438.247-.597a.84.84 0 0 1 .597-.247h5.063c.224 0 .438.089.597.247a.84.84 0 0 1 .247.597c0 .224-.089.438-.247.597a.84.84 0 0 1-.597.247z" fill="#e0e2e5"/><path d="M51.469 48.938H2.531c-.224 0-.438-.089-.597-.247s-.247-.373-.247-.597.089-.438.247-.597.373-.247.597-.247h48.938c.224 0 .438.089.597.247s.247.373.247.597-.089.438-.247.597-.373.247-.597.247z" fill="#c2c5c6"/><path d="M2.531 39.656h42.188v1.688c0 .447-.178.877-.494 1.193s-.746.494-1.193.494H4.219c-.448 0-.877-.178-1.193-.494a1.69 1.69 0 0 1-.494-1.193v-1.688z" fill="#fdd14b"/><path d="M36.281 48.094c2.796 0 5.063-2.267 5.063-5.063s-2.267-5.062-5.063-5.062-5.062 2.267-5.062 5.062 2.267 5.063 5.062 5.063z" fill="#6a7073"/><path d="M36.281 44.719a1.69 1.69 0 0 0 1.688-1.688 1.69 1.69 0 0 0-1.688-1.687 1.69 1.69 0 0 0-1.687 1.687 1.69 1.69 0 0 0 1.687 1.688z" fill="#99a2a7"/><path d="M10.969 48.094c2.796 0 5.062-2.267 5.062-5.063s-2.266-5.062-5.062-5.062-5.063 2.267-5.063 5.062 2.267 5.063 5.063 5.063z" fill="#6a7073"/><path d="M10.969 44.719a1.69 1.69 0 0 0 1.687-1.688 1.69 1.69 0 0 0-1.687-1.687 1.69 1.69 0 0 0-1.688 1.687 1.69 1.69 0 0 0 1.688 1.688z" fill="#99a2a7"/><path d="M16.031 36.281h15.188v1.688c0 .447-.178.877-.494 1.193s-.746.494-1.193.494H17.719c-.448 0-.877-.178-1.193-.494s-.494-.746-.494-1.193v-1.688z" fill="#ea8333"/><path d="M30.529 32.906c.847 0 1.534.756 1.534 1.688s-.687 1.687-1.534 1.687H16.722c-.847 0-1.534-.755-1.534-1.687s.687-1.688 1.534-1.688h13.807z" fill="#794832"/><path d="M16.875 29.531h13.5v3.375h-13.5v-3.375z" fill="#fdd14b"/><path d="M32.906 30.375c0 1.398-1.187 2.531-2.652 2.531-.432.003-.859-.098-1.244-.295s-.716-.484-.966-.837c-.252.35-.584.636-.968.832s-.81.299-1.241.299-.857-.103-1.241-.299-.716-.482-.968-.832c-.252.35-.584.636-.968.832s-.81.299-1.241.299-.857-.103-1.241-.299-.716-.482-.968-.832c-.25.353-.581.64-.966.837s-.812.298-1.244.295c-1.465 0-2.652-1.133-2.652-2.531 0-.224.089-.438.247-.597s.373-.247.597-.247h16.875c.224 0 .438.089.597.247s.247.373.247.597z" fill="#3ba673"/><path d="M31.219 22.781v-6.75c0-.169.05-.333.145-.473s.229-.248.385-.31l4.219-1.687c.103-.041.213-.062.324-.06s.22.024.322.068.194.107.272.186.138.173.18.276.062.213.06.324-.025.22-.068.322-.107.194-.186.271-.173.138-.276.18l-3.688 1.475v6.179h-1.687z" fill="#e74444"/><path d="M31.219 19.406h1.687v3.375h-1.687v-3.375z" fill="#ce3536"/></svg>