<svg xmlns="http://www.w3.org/2000/svg" width="11" height="17" fill="none" xmlns:v="https://vecta.io/nano"><g fill="#f98aab"><path d="M6.384 4.125c.871-.362 1.34-1.204 1.128-2.028S6.464.688 5.5.688s-1.8.585-2.012 1.409.257 1.666 1.128 2.028h1.768zm-3.222.688c-.076 0-.149-.033-.201-.092C1.82 3.443 1.758 1.465 2.819.111c.062-.083.161-.124.26-.107a.28.28 0 0 1 .215.188c.034.099.015.21-.051.29-.884 1.129-.832 2.777.12 3.842.075.084.096.208.052.315s-.143.175-.253.175zm5.105-1.375c-.106 0-.203-.044-.258-.117s-.059-.164-.011-.24c.552-.87.41-1.922-.361-2.675a.21.21 0 0 1-.056-.244c.038-.084.128-.144.237-.158s.218.021.286.09c.926.904 1.096 2.167.433 3.211-.052.082-.156.133-.27.133z"/><path d="M11 7.865v4.434s0 1.51-.919 2.384c-.104.104-.162.248-.159.398v.86c-.001.309-.242.559-.539.56H5.073c-.297-.001-.538-.251-.539-.56v-.104a1.7 1.7 0 0 0-.482-1.193c-.52-.527-1.323-1.437-1.673-2.344C1.84 10.898.762 8.937.223 8.377s0-1.12.539-1.12 1.616 1.12 2.155 1.961c.171.27.372.519.598.742a.52.52 0 0 0 .5.132c.177-.048.319-.186.376-.367a3.48 3.48 0 0 0 .143-1.067V2.215a.83.83 0 0 1 .539-.79c.086-.034.177-.051.269-.05.446 0 .808.376.808.84v3.361a.83.83 0 0 1 .539-.79.72.72 0 0 1 .269-.05c.446 0 .808.376.808.84v.84c0-.223.085-.436.237-.594a.76.76 0 0 1 .302-.196.72.72 0 0 1 .269-.05c.446 0 .808.376.808.84v1.4c0-.223.085-.436.237-.594a.76.76 0 0 1 .302-.196c.105-.04.217-.056.329-.048.433.048.758.433.749.885z"/></g><path d="M5.515 1.393a.77.77 0 0 0-.277.05c-.334.115-.557.43-.555.783v6.383a3.32 3.32 0 0 1-.147 1.057.56.56 0 0 1-.25.305.55.55 0 0 0 .805-.305 3.32 3.32 0 0 0 .147-1.057V2.225c-.002-.353.221-.668.555-.783a.77.77 0 0 0-.278-.05zm1.388 3.38c-.334.115-.557.43-.555.783v2.498c0 .153.124.277.278.277s.277-.124.277-.277V5.555c-.002-.353.221-.668.555-.783a.79.79 0 0 0-.555 0zm1.668.833a.79.79 0 0 0-.311.194.83.83 0 0 0-.244.588v1.665c0 .153.124.277.278.277s.277-.124.277-.277V6.388c-.002-.353.222-.667.555-.783a.79.79 0 0 0-.555 0zm1.942 1.337a.77.77 0 0 0-.277.05.79.79 0 0 0-.311.194.83.83 0 0 0-.244.588v.555c0 .153.124.278.277.278s.278-.124.278-.278v-.555c-.002-.353.221-.667.555-.783a.77.77 0 0 0-.277-.05zm-.544 2.682c-.19 0-.344.115-.344.258v1.547c0 .142.154.258.344.258s.344-.116.344-.258V9.883c0-.142-.154-.258-.344-.258zm.121 2.75c-.123.003-.224.146-.234.331a.92.92 0 0 1-.161.453.47.47 0 0 0-.062.334c.021.12.083.214.163.246s.165-.004.222-.094c.174-.242.279-.575.295-.931 0-.186-.099-.337-.223-.339zm-4.132 2.75h-.229c-.127 0-.229.154-.229.344s.103.344.229.344h.229c.127 0 .229-.154.229-.344s-.103-.344-.229-.344zm2.75 0H7.104c-.127 0-.229.154-.229.344s.103.344.229.344h1.604c.127 0 .229-.154.229-.344s-.103-.344-.229-.344z" fill="#f8edf0"/></svg>