<svg xmlns="http://www.w3.org/2000/svg" xmlns:xlink="http://www.w3.org/1999/xlink" width="16" height="13" fill="none" xmlns:v="https://vecta.io/nano"><g fill="#f98aab"><use xlink:href="#B"/><use xlink:href="#B" y="2.165"/><path d="M5.159 11.955c-.066-.157-.25-.234-.408-.169s-.234.251-.169.408.25.234.408.169.234-.251.169-.408zm10.757-4.836l-3.717-3.99 1.138-1.135c.198-.195.307-.456.307-.734a1.02 1.02 0 0 0-.299-.727 1.04 1.04 0 0 0-1.462-.012l-1.563 1.56h-.583V.88c0-.173-.14-.313-.312-.313H7.769V.313C7.769.14 7.629 0 7.457 0s-.313.14-.313.313v.255H6.002V.313C6.002.14 5.862 0 5.69 0s-.312.14-.312.313v.255H4.236V.313C4.236.14 4.096 0 3.923 0s-.312.14-.312.313v.255H2.469V.313C2.469.14 2.329 0 2.157 0s-.312.14-.312.313v.255H.313C.14.568 0 .708 0 .88v11.194c0 .173.14.313.313.313h3.19c.173 0 .313-.14.313-.312s-.14-.312-.312-.312H.625V1.193h1.219v.284c0 .173.14.313.312.313s.313-.14.313-.312v-.284h1.142v.284c0 .173.14.313.313.313s.313-.14.313-.312v-.284h1.142v.284c0 .173.14.313.313.313s.313-.14.313-.312v-.284h1.142v.284c0 .173.14.313.313.313s.313-.14.313-.312v-.284h1.342v.889a2.26 2.26 0 0 0-1.495.656l-2.3 2.3c-.139.139-.113.377.051.483a2.12 2.12 0 0 0 .852.319c.101.015.204.022.307.022l-.357.358c-.026.026-.047.056-.062.089L5.105 7.815a.68.68 0 0 0-.114.441H2.157c-.173 0-.312.14-.312.313s.14.313.312.313h3.519a.69.69 0 0 0 .383-.121l1.524-1.035a.4.4 0 0 0 .051-.041l.707-.705.771.769v4.014h-2.86c-.173 0-.312.14-.312.313s.14.313.313.313h3.172c.173 0 .313-.14.313-.312V8.358a2.19 2.19 0 0 0 1.408.507h1.247a.96.96 0 0 1 .688.293l2.381 2.53c.189.201.54.063.54-.214V7.332c0-.079-.03-.155-.084-.213zM8.058 3.18c.303-.303.717-.474 1.145-.474h.49L7.746 4.648c-.18.173-.351.342-.581.449-.34.158-.736.183-1.094.07L8.058 3.18zM12.319.968c.163-.157.424-.155.582.004.076.077.118.179.118.287a.41.41 0 0 1-.122.291L9.631 4.808l-.157-.157a1.22 1.22 0 0 0-.534-.311L12.32.968zM5.708 8.243c-.027.018-.052.016-.075-.007-.035-.034-.017-.061-.008-.075l.817-1.227.482.482-1.217.827zm1.705-1.222l-.58-.58.595-.594a1.23 1.23 0 0 0 .317.538l.152.152-.485.484zm7.962 3.665l-1.842-1.958c-.296-.31-.713-.488-1.142-.488h-1.247c-.422 0-.819-.164-1.118-.462l-1.84-1.836c-.266-.199-.206-.641 0-.85a.61.61 0 0 1 .845.002l1.495 1.495c.12.12.322.12.442 0s.122-.32 0-.442l-.896-.896 1.684-1.68 3.618 3.884v3.231z"/></g><defs ><path id="B" d="M2.156 4.552h2.422c.173 0 .313-.14.313-.312s-.14-.312-.312-.312H2.156c-.173 0-.312.14-.312.313s.14.313.313.313z"/></defs></svg>