<svg xmlns="http://www.w3.org/2000/svg" width="14" height="14" fill="none" xmlns:v="https://vecta.io/nano"><path d="M11.539 11.922H3.746a1.23 1.23 0 1 1 0-2.461h1.23l-.739.82h-.491a.41.41 0 1 0 0 .82h7.793v.82z" fill="#f9c2d2"/><g fill="#f98aab"><path d="M7.848 11.102h3.691v.82H7.848v-.82z"/><path opacity=".5" d="M2.963 4.539l-.367-1.641H0v-.82h3.255l.711 3.182-1.002-.721z"/></g><path d="M9.61 4.68l-.123-.141H2.965l1.273 5.742h7.209l1.446-5.594c-.281.07-1.942 1.533-3.283-.008zm2.064 1.448L11.448 7H9.525l.104-1.251c.602.367 1.341.512 2.044.379zM6.996 7l-.137-1.641h1.98L8.702 7H6.996zm1.638.82l-.137 1.641H7.201L7.064 7.82h1.57zM6.036 5.359L6.173 7H4.351l-.364-1.641h2.048zM4.533 7.82h1.708l.137 1.641H4.897L4.533 7.82zM9.32 9.461l.137-1.641h1.78l-.424 1.641H9.32z" fill="#f9c2d2"/><path d="M9.609 4.68l-.123-.141H7.848v.82h.99L8.701 7h-.853v.82h.785l-.137 1.641h-.648v.82h3.599l1.446-5.594c-.281.07-1.942 1.533-3.283-.008zm1.202 4.781H9.319l.137-1.641h1.78l-.424 1.641zm.861-3.333L11.447 7H9.524l.104-1.251c.602.367 1.341.512 2.044.379z" fill="#f98aab"/><path d="M5.387 13.563a1.23 1.23 0 1 1 0-2.461 1.23 1.23 0 1 1 0 2.461z" fill="#665151"/><path d="M9.488 13.563a1.23 1.23 0 1 1 0-2.461 1.23 1.23 0 1 1 0 2.461z" fill="#4d3535"/><path d="M11.129 6.18c-1.627 0-2.871-1.329-2.871-2.871 0-1.583 1.288-2.871 2.871-2.871S14 1.726 14 3.309a2.87 2.87 0 0 1-2.871 2.871z" fill="#f9c2d2"/><path d="M5.387 12.742a.41.41 0 1 0 0-.82.41.41 0 1 0 0 .82z" fill="#fff7e6"/><path d="M9.488 12.742a.41.41 0 1 0 0-.82.41.41 0 1 0 0 .82z" fill="#ffeacc"/><path d="M14 3.309C14 1.726 12.712.438 11.129.438V6.18A2.87 2.87 0 0 0 14 3.309z" fill="#f98aab"/><g fill="#fff"><path d="M12.359 2.898h-.82v-.82h-.82v.82h-.82v.82h.82v.82h.82v-.82h.82v-.82z"/><path d="M11.129 2.078v2.461h.41v-.82h.82v-.82h-.82v-.82h-.41z"/></g></svg>