<svg xmlns="http://www.w3.org/2000/svg" width="35" height="21" fill="none" xmlns:v="https://vecta.io/nano"><path d="M34.623 10.846C34.623 16.434 30.11 21 24.469 21c-5.587 0-10.154-4.567-10.154-10.154S18.828.692 24.416.692c5.695 0 10.208 4.567 10.208 10.154z" fill="#ffb600"/><path d="M24.469.692c5.587 0 10.154 4.567 10.154 10.154S30.11 21 24.469 21c-5.587 0-10.154-4.567-10.154-10.154" fill="#f7981d"/><path d="M24.469.692c5.587 0 10.154 4.567 10.154 10.154S30.11 21 24.469 21" fill="#ff8500"/><path d="M10.824.692A10.16 10.16 0 0 0 .777 10.846C.777 16.434 5.29 21 10.931 21c2.633 0 4.996-1.021 6.823-2.633.376-.322.698-.698 1.021-1.075H16.68a12.4 12.4 0 0 1-.752-1.021h3.6c.215-.322.43-.698.591-1.075h-4.781c-.161-.322-.322-.698-.43-1.075h5.587c.322-1.021.537-2.095.537-3.223 0-.752-.107-1.451-.215-2.149h-6.232c.054-.376.161-.698.269-1.074h5.587c-.108-.376-.269-.752-.43-1.074h-4.728c.161-.376.376-.698.591-1.074h3.599a5.11 5.11 0 0 0-.806-1.074H16.68A9.16 9.16 0 0 1 17.7 3.432C15.928 1.767 13.51.8 10.878.8c0-.107 0-.107-.054-.107z" fill="#ff5050"/><path d="M.777 10.846C.777 16.434 5.29 21 10.931 21c2.633 0 4.996-1.021 6.823-2.633.376-.322.698-.698 1.021-1.075H16.68c-.269-.322-.537-.698-.752-1.021h3.6c.215-.322.43-.698.591-1.074h-4.781c-.161-.322-.322-.698-.43-1.075h5.587c.322-1.021.537-2.095.537-3.223 0-.752-.107-1.451-.215-2.149h-6.232c.054-.376.161-.698.269-1.074h5.587c-.108-.376-.269-.752-.43-1.074h-4.728c.161-.376.376-.698.591-1.074h3.599a5.11 5.11 0 0 0-.806-1.074H16.68A9.16 9.16 0 0 1 17.7 3.432C15.928 1.767 13.51.8 10.878.8h-.054" fill="#e52836"/><path d="M10.932 21c2.632 0 4.996-1.021 6.823-2.633.376-.322.698-.698 1.021-1.075H16.68c-.269-.322-.537-.698-.752-1.021h3.599c.215-.322.43-.698.591-1.074h-4.782c-.161-.322-.322-.698-.43-1.075h5.587c.322-1.021.537-2.095.537-3.223 0-.752-.108-1.451-.215-2.149h-6.232c.054-.376.161-.698.269-1.074h5.587c-.107-.376-.269-.752-.43-1.074h-4.728c.161-.376.376-.698.591-1.074h3.6c-.215-.376-.483-.752-.806-1.074H16.68a9.16 9.16 0 0 1 1.021-1.021C15.928 1.767 13.51.8 10.878.8h-.054" fill="#cb2026"/><g fill="#fff"><path d="M14.53 13.424l.161-.913c-.054 0-.161.054-.269.054-.376 0-.43-.215-.376-.322l.322-1.88h.591l.161-1.021h-.537l.107-.645h-1.074l-.645 3.976c0 .645.376.913.86.913a1.65 1.65 0 0 0 .698-.161z"/><path d="M14.909 11.705c0 1.504 1.021 1.88 1.88 1.88.806 0 1.128-.161 1.128-.161l.215-1.021s-.591.269-1.128.269c-1.182 0-.967-.86-.967-.86h2.203s.161-.698.161-.967c0-.698-.376-1.558-1.558-1.558-1.128-.107-1.934 1.075-1.934 2.418zm1.88-1.558c.591 0 .483.698.483.752H16.09c0-.054.107-.752.698-.752zm6.829 3.277l.215-1.182s-.537.269-.913.269c-.752 0-1.075-.591-1.075-1.236 0-1.289.645-1.988 1.397-1.988.537 0 .967.322.967.322l.161-1.128s-.645-.269-1.236-.269c-1.236 0-2.471 1.074-2.471 3.116 0 1.343.645 2.256 1.934 2.256.43 0 1.021-.161 1.021-.161zM8.623 9.18c-.752 0-1.289.215-1.289.215l-.161.913s.484-.215 1.182-.215c.376 0 .698.054.698.376 0 .215-.054.269-.054.269h-.484c-.913 0-1.934.376-1.934 1.612 0 .967.645 1.182 1.021 1.182.752 0 1.074-.483 1.128-.483l-.054.43h.967l.43-2.955c0-1.289-1.074-1.343-1.451-1.343zm.215 2.418c0 .161-.107 1.021-.752 1.021-.322 0-.43-.269-.43-.43 0-.269.161-.645.967-.645a.84.84 0 0 0 .215.054zm2.256 1.933c.269 0 1.612.054 1.612-1.397 0-1.343-1.289-1.074-1.289-1.612 0-.269.215-.376.591-.376a16.07 16.07 0 0 1 .752.054l.161-.967s-.376-.107-1.021-.107c-.806 0-1.612.322-1.612 1.397 0 1.236 1.343 1.128 1.343 1.612 0 .322-.376.376-.645.376-.483 0-.967-.161-.967-.161l-.161.967c.054.107.322.215 1.236.215zm21.44-5.211l-.215 1.451s-.43-.537-1.021-.537c-.967 0-1.827 1.182-1.827 2.579 0 .86.43 1.773 1.343 1.773.645 0 1.021-.43 1.021-.43l-.054.376h1.074l.806-5.158-1.128-.054zm-.484 2.847c0 .591-.269 1.343-.86 1.343-.376 0-.591-.322-.591-.86 0-.86.376-1.397.86-1.397.376 0 .591.269.591.913zM2.77 13.478l.645-3.868.107 3.868h.752L5.671 9.61l-.591 3.868h1.128l.86-5.157H5.295L4.22 11.49l-.054-3.17H2.609l-.86 5.157H2.77z"/><path d="M19.424 13.478c.322-1.773.376-3.224 1.128-2.955.108-.698.269-.967.376-1.236h-.215c-.483 0-.86.645-.86.645l.108-.591H18.94l-.698 4.19h1.182v-.054zm6.664-4.298c-.752 0-1.289.215-1.289.215l-.161.913s.483-.215 1.182-.215c.376 0 .698.054.698.376 0 .215-.054.269-.054.269h-.483c-.913 0-1.934.376-1.934 1.612 0 .967.645 1.182 1.021 1.182.752 0 1.075-.483 1.128-.483l-.054.43h.967l.43-2.955c.054-1.289-1.075-1.343-1.451-1.343zm.269 2.418c0 .161-.107 1.021-.752 1.021-.322 0-.43-.269-.43-.43 0-.269.161-.645.967-.645.161.054.161.054.215.054zm2.091 1.88c.322-1.773.376-3.224 1.128-2.955.107-.698.269-.967.376-1.236h-.215c-.483 0-.86.645-.86.645l.107-.591h-1.021l-.698 4.19h1.182v-.054z"/></g><g fill="#dce5e5"><path d="M12.866 12.672c0 .645.376.913.86.913.376 0 .698-.107.806-.161l.161-.913c-.054 0-.161.054-.269.054-.376 0-.43-.215-.376-.322l.322-1.88h.591l.161-1.021h-.537l.107-.645m.752 3.008c0 1.504.484 1.88 1.343 1.88.806 0 1.128-.161 1.128-.161l.215-1.021s-.591.269-1.128.269c-1.182 0-.967-.86-.967-.86h2.203s.161-.698.161-.967c0-.698-.376-1.558-1.558-1.558-1.128-.107-1.397 1.075-1.397 2.418zm1.343-1.558c.591 0 .698.698.698.752h-1.397c0-.054.108-.752.698-.752zm6.829 3.277l.215-1.182s-.537.269-.913.269c-.752 0-1.075-.591-1.075-1.236 0-1.289.645-1.988 1.397-1.988.537 0 .967.322.967.322l.161-1.128s-.645-.269-1.236-.269c-1.236 0-1.934 1.074-1.934 3.116 0 1.343.108 2.256 1.397 2.256.43 0 1.021-.161 1.021-.161zM7.172 10.362s.484-.215 1.182-.215c.376 0 .698.054.698.376 0 .215-.054.269-.054.269h-.484c-.913 0-1.934.376-1.934 1.612 0 .967.645 1.182 1.021 1.182.752 0 1.074-.484 1.128-.484l-.054.43h.967l.43-2.955c0-1.236-1.074-1.289-1.504-1.289l-1.397 1.074zm2.203 1.236c0 .161-.645 1.021-1.289 1.021-.322 0-.43-.269-.43-.43 0-.269.161-.645.967-.645.161.054.752.054.752.054z"/><path d="M9.913 13.424s.322.107 1.236.107c.269 0 1.612.054 1.612-1.397 0-1.343-1.289-1.074-1.289-1.612 0-.269.215-.376.591-.376.161 0 .752.054.752.054l.161-.967s-.376-.107-1.021-.107c-.806 0-1.074.322-1.074 1.397 0 1.236.806 1.128.806 1.612 0 .322-.376.376-.645.376m21.274-2.74s-.43-.537-1.021-.537c-.967 0-1.289 1.182-1.289 2.579 0 .86-.107 1.773.806 1.773.645 0 1.021-.43 1.021-.43l-.054.376h1.075l.806-5.157-1.343 1.397zm-.054 1.397c0 .591-.484 1.343-1.074 1.343-.376 0-.591-.322-.591-.86 0-.86.376-1.397.86-1.397.376 0 .806.269.806.913zM2.77 13.478l.645-3.868.107 3.868h.752L5.671 9.61l-.591 3.868h1.128l.86-5.157H5.725L4.22 11.49l-.054-3.17h-.591l-1.827 5.157H2.77z"/><path d="M18.295 13.478h1.128c.322-1.773.376-3.224 1.128-2.955.107-.698.269-.967.376-1.236h-.215c-.483 0-.86.645-.86.645l.107-.591m4.678 1.021s.483-.215 1.182-.215c.376 0 .698.054.698.376 0 .215-.054.269-.054.269h-.483c-.913 0-1.934.376-1.934 1.612 0 .967.645 1.182 1.021 1.182.752 0 1.075-.484 1.128-.484l-.054.43h.967l.43-2.955c0-1.236-1.075-1.289-1.504-1.289l-1.397 1.074zm2.203 1.236c0 .161-.645 1.021-1.289 1.021-.322 0-.43-.269-.43-.43 0-.269.161-.645.967-.645.215.054.752.054.752.054zm.483 1.88h1.128c.322-1.773.376-3.224 1.128-2.955.107-.698.269-.967.376-1.236h-.215c-.483 0-.86.645-.86.645l.108-.591"/></g></svg>