<svg xmlns="http://www.w3.org/2000/svg" width="19" height="22" fill="none" xmlns:v="https://vecta.io/nano"><path d="M16.67 5.059a.46.46 0 0 0-.687.346c-.017.15-.042.301-.074.458-.897 4.073-2.7 6.054-5.511 6.054H6.273a.46.46 0 0 0-.448.367L4.45 18.729l-.246 1.641c-.141.746.349 1.466 1.095 1.607.082.016.166.024.25.024h2.759a1.37 1.37 0 0 0 1.334-1.044l1.115-4.456h2.392c2.822 0 4.773-2.25 5.493-6.337a4.79 4.79 0 0 0-1.97-5.104z" fill="#03a9f4"/><path d="M15.805 1.634C14.899.606 13.599.012 12.23 0H4.64a2.28 2.28 0 0 0-2.268 1.949L.015 17.67c-.113.751.404 1.451 1.155 1.564a1.39 1.39 0 0 0 .206.015h3.52a.46.46 0 0 0 .448-.367l1.297-6.05H10.4c3.261 0 5.417-2.28 6.406-6.783.04-.18.07-.361.092-.544.23-1.389-.171-2.809-1.094-3.873z" fill="#283593"/></svg>