<svg xmlns="http://www.w3.org/2000/svg" width="11" height="10" fill="#f6762c" xmlns:v="https://vecta.io/nano"><path d="M3.797 0H1.266C.914 0 .615.133.369.398S0 .985 0 1.364v2.727c0 .379.123.701.369.966s.545.398.896.398h1.476a.59.59 0 0 1 .448.199c.123.132.185.294.185.483v.227c0 .502-.165.93-.494 1.285s-.727.533-1.193.533h-.422c-.114 0-.213.045-.297.135a.45.45 0 0 0-.125.32v.909c0 .123.042.23.125.32a.39.39 0 0 0 .297.135h.422a3.08 3.08 0 0 0 1.308-.288 3.41 3.41 0 0 0 1.078-.778c.304-.327.544-.714.722-1.161a3.78 3.78 0 0 0 .267-1.41v-5c0-.379-.123-.701-.369-.966S4.148 0 3.797 0zm6.802.398C10.353.133 10.054 0 9.703 0H7.172c-.352 0-.65.133-.896.398s-.369.587-.369.966v2.727c0 .379.123.701.369.966s.545.398.896.398h1.476a.59.59 0 0 1 .448.199c.123.133.185.294.185.483v.227a1.82 1.82 0 0 1-.494 1.285 1.57 1.57 0 0 1-1.193.533h-.422c-.114 0-.213.045-.297.135a.45.45 0 0 0-.125.32v.909c0 .123.042.23.125.32a.39.39 0 0 0 .297.135h.422a3.08 3.08 0 0 0 1.308-.288 3.41 3.41 0 0 0 1.078-.778 3.69 3.69 0 0 0 .722-1.161 3.78 3.78 0 0 0 .267-1.41v-5c0-.379-.123-.701-.369-.966z"/></svg>