<svg xmlns="http://www.w3.org/2000/svg" width="49" height="16" fill="none" xmlns:v="https://vecta.io/nano"><path d="M19.992.384l-2.378 14.799h3.801L23.792.384h-3.8zm11.465 6.028c-1.328-.656-2.143-1.099-2.143-1.77.016-.61.689-1.235 2.19-1.235 1.235-.031 2.143.259 2.831.548l.345.154.517-3.096c-.751-.29-1.941-.61-3.412-.61-3.754 0-6.397 1.952-6.413 4.743-.031 2.06 1.892 3.203 3.332 3.888 1.47.703 1.971 1.159 1.971 1.784-.016.96-1.189 1.402-2.283 1.402-1.516 0-2.331-.228-3.567-.763l-.5-.228-.532 3.218c.893.397 2.535.746 4.24.764 3.989 0 6.585-1.922 6.618-4.897.013-1.632-1.001-2.882-3.193-3.903zM44.943.43h-2.941c-.906 0-1.595.261-1.987 1.191l-5.646 13.562h3.989l1.099-2.936h4.463l.57 2.948h3.518L44.943.43zm-4.38 8.853c.077.007 1.531-4.793 1.531-4.793l1.158 4.793h-2.689zM14.438.384l-3.724 10.054-.406-1.983c-.689-2.288-2.847-4.774-5.257-6.009l3.41 12.721h4.022L18.46.386h-4.022V.384z" fill="#2394bc"/><path d="M9.056 2.294C8.766 1.165 7.841.404 6.584.388H.686L.625.662c4.601 1.134 8.462 4.624 9.715 7.907L9.056 2.294z" fill="#efc75e"/></svg>